<?xml version="1.0" encoding="utf-8"?>
<!-- Generator: Adobe Illustrator 21.0.2, SVG Export Plug-In . SVG Version: 6.00 Build 0)  -->
<svg version="1.1" id="Layer_1" xmlns="http://www.w3.org/2000/svg" xmlns:xlink="http://www.w3.org/1999/xlink" x="0px" y="0px"
	 viewBox="0 0 800 600" style="enable-background:new 0 0 800 600;" xml:space="preserve">
<style type="text/css">
	.st0{opacity:0.4;fill:#F9A31B;}
	.st1{opacity:0.4;fill:#060808;}
	.st2{opacity:0.4;fill:#FFFFFF;}
	.st3{opacity:0.3;}
</style>
<path class="st0" d="M135.6,287c5.6-140.6,121.3-252.8,263.2-252.8C540.7,34.2,656.4,146.4,662,287L135.6,287z"/>
<path class="st1" d="M661.9,310.5C655.2,450,540,561,398.8,561c-141.2,0-256.4-111-263.1-250.5L661.9,310.5z"/>
<path class="st1" d="M159.3,287c6.1-130.7,110.9-234.7,239.4-234.7c128.4,0,233.3,104,239.4,234.6L159.3,287z"/>
<path class="st0" d="M638,310.4c-6.1,129.6-110.9,232.8-239.4,232.8c-128.4,0-233.3-103.2-239.4-232.8L638,310.4z"/>
<path class="st2" d="M468.4,242.2c0,0-41.8,3-105.3-2.1c-63.5-5.1-111-10.6-135.1-6.4c-24,4.2-33.3,13.2-31.9,21.6
	c1.4,8.3,16.5,18,33.5,18c17,0,100.1-8,135.6-11.1c35.5-3.1,103.9-5.7,103.9-5.7l16.2,14.2l111.6-3.3l6.1-3.5l-4.7-2.3l-100.6,1
	l-0.3-4.8l100.8-1.8l4.7-3.1l-4.6-2l-100.7,0.7l0.1-4.9l98-2.2l6.7-3.1l-5-2.6l-100.4,1.7l-0.5-6.1l99.7-1.8l5.6-2.8l-5.3-1.9
	l-112.9-0.4L468.4,242.2z"/>
<path class="st2" d="M336.2,374.1c0,0-17,29.2-38,32.2c-20.9,3-56.5-0.1-73-11.6c-16.5-11.4-22.9-23.2-22.7-29.7
	c0.3-6.5,10.2-18.7,21.1-26.1c10.9-7.4,49.7-21.8,74.2-12.5c24.5,9.3,38.5,31.8,38.5,31.8s0.9,1.4,12.7,2.2c11.8,0.8,95.5-3,107.8-5
	c12.3-2.1,78-6.2,93.6-5.9c15.6,0.3,32.7,2.6,38,8.4c5.3,5.8,6,9.2,6.1,12.8c0,3.6-5.9,10.2-13.2,12.3c-7.3,2.1-33.2,5.2-77,2
	c-43.8-3.2-116.6-10.2-138-10.5C344.9,374.1,336.2,374.1,336.2,374.1z"/>
<g class="st3">
	<path d="M222,496.5c-5.2-5.1-12.4-13-21.6-23.8c-9.2-10.7-16.1-18.5-20.6-23.3c0,10.7,0.2,22,0.6,33.9c0.1,3.2,0.2,5.1,0.2,5.8
		c0,2.8-0.3,4.7-0.9,5.5c-0.6,0.9-1.7,1.3-3.3,1.3c-1.1,0-2.1-0.2-3.3-0.6c-1.1-0.4-2.3-0.9-3.4-1.6c1.5-2.6,2.6-6.4,3.2-11.3
		c0.6-4.9,0.9-13.6,0.9-26c0-5.8-0.4-10-1.1-12.4c-0.7-2.4-2-4.2-3.8-5.1c1.3-1.5,2.4-2.5,3.3-3.2c1-0.6,1.9-1,2.9-1
		c0.9,0,1.8,0.3,2.7,0.9c0.9,0.6,2,1.6,3.2,3.1c0.2,0.3,0.8,0.9,1.6,1.9c10.9,13,23.1,27,36.7,42.2c0.1-4.2,0.1-8,0.2-11.2
		c0-3.2,0.1-6,0.1-8.3c0-7.6-0.3-13.3-0.9-17.3c-0.6-4-1.6-7.2-2.9-9.5c1.3-0.7,2.4-1.2,3.5-1.5c1-0.3,2-0.5,2.9-0.5
		c1.6,0,2.7,0.5,3.4,1.4c0.6,1,0.9,3,0.9,6.2c0,1.9-0.2,6.5-0.5,13.9c-0.3,7.4-0.5,13.8-0.5,19.3c0,3.6,0.1,6.9,0.3,10.1
		c0.2,3.1,0.4,6.1,0.7,8.8L222,496.5z"/>
	<path d="M269.4,497.3c-4.3,0-8.4-0.7-12.2-2.2c-3.8-1.4-7.1-3.5-10-6.3c-3.1-2.9-5.4-6.3-6.9-10.1c-1.6-3.8-2.3-8.1-2.3-12.9
		c0-4.6,0.8-9,2.5-12.9c1.7-4,4.1-7.5,7.4-10.5c3.2-3,6.8-5.3,11-6.8c4.2-1.5,8.7-2.3,13.7-2.3c9.7,0,17.4,2.7,23.2,8.2
		c5.8,5.5,8.7,12.7,8.7,21.8c0,4.5-0.8,8.7-2.4,12.7c-1.6,4-3.9,7.5-6.9,10.6c-3.4,3.6-7.3,6.3-11.6,8.1
		C279.3,496.4,274.6,497.3,269.4,497.3z M295.6,463.8c0-7.2-2.2-13-6.5-17.3c-4.3-4.3-10.1-6.5-17.4-6.5c-7.5,0-13.5,2.3-18,6.9
		s-6.7,10.7-6.7,18.3c0,7.4,2.2,13.4,6.5,18c4.4,4.6,10,6.9,17,6.9c7.4,0,13.4-2.4,18.1-7.3C293.2,477.9,295.6,471.6,295.6,463.8z"
		/>
	<path d="M353.2,493.9c-1.3,0.7-2.6,1.3-3.8,1.6c-1.2,0.4-2.4,0.6-3.5,0.6c-1.5,0-2.5-0.4-3.1-1.3c-0.6-0.8-0.8-2.5-0.8-4.8
		c0-1.2,0.1-5.1,0.4-11.6c0.3-6.5,0.4-12.4,0.4-17.8c0-6.9-0.2-12.2-0.6-15.9c-0.4-3.7-1.1-6.4-2-8.1c1.5-0.8,2.8-1.3,4-1.7
		c1.2-0.4,2.3-0.6,3.3-0.6c1.5,0,2.5,0.4,3.1,1.3c0.6,0.9,0.9,2.4,0.9,4.6c0,0.3-0.1,3.9-0.4,10.6c-0.3,6.7-0.4,13.3-0.4,19.8
		c0,6.5,0.2,11.5,0.6,15.2C351.5,489.4,352.2,492.1,353.2,493.9z"/>
	<path d="M433.9,436.7c-0.5,1.9-0.9,3.8-1.1,5.7c-0.2,2-0.4,4.1-0.4,6.4c0,9.2,0.6,17.6,1.8,25.2c1.2,7.6,2.9,14.2,5.2,19.8
		c-1.4,0.7-2.6,1.3-3.8,1.6c-1.2,0.4-2.4,0.5-3.5,0.5c-1.2,0-2.1-0.3-2.8-0.8c-0.7-0.5-1.2-1.3-1.5-2.5c-0.2-0.7-0.5-5.9-0.9-15.6
		c-0.5-9.7-1.1-19.2-1.9-28.5c-6,11.2-12.2,23.5-18.8,36.9c-1.2,2.5-2,4.2-2.5,5c-0.5,1.1-1.1,1.9-1.6,2.3c-0.5,0.5-1.1,0.7-1.8,0.7
		c-1.4,0-2.8-1.6-4.2-4.7c-0.3-0.7-0.6-1.3-0.8-1.7c-4.6-9.4-8.5-17.2-11.7-23.4s-5.8-11.2-7.8-14.9c-0.5,7.2-0.9,16-1.4,26.5
		s-0.9,16.5-1.5,18.1c-0.3,0.9-0.7,1.5-1.3,1.9c-0.6,0.4-1.3,0.6-2.3,0.6c-0.7,0-1.6-0.2-2.7-0.5s-2.3-0.9-3.7-1.6
		c2.2-5.6,3.9-12.2,5.1-19.8c1.2-7.7,1.8-16.2,1.8-25.5c0-2.2-0.1-4.3-0.4-6.3c-0.2-1.9-0.6-3.8-1-5.6c0.9-0.8,1.8-1.4,2.6-1.8
		c0.8-0.4,1.6-0.6,2.5-0.6c2.8,0,7.2,6.3,13.3,18.9c2.3,4.8,4.2,8.5,5.6,11.4c3.2,6.4,5.4,10.6,6.6,12.6c1.2,2.1,2,3.1,2.3,3.1
		c0.8,0,4.7-7.1,11.7-21.4c2.9-5.9,5.2-10.5,7-14.1c1.9-3.8,3.5-6.5,5-8.2c1.4-1.6,2.9-2.4,4.3-2.4c0.8,0,1.6,0.2,2.4,0.6
		C432,435.3,432.9,435.9,433.9,436.7z"/>
	<path d="M482,476.3h-23.1c-2.3,5-3.9,8.8-4.8,11.7c-0.9,2.8-1.3,5.2-1.3,7.3l0,0.7c-0.7,0.1-1.1,0.1-1.4,0.1c-0.3,0-0.6,0-0.8,0
		c-1.9,0-3.3-0.4-4.2-1.1c-1-0.8-1.5-1.9-1.5-3.3s2.8-7.7,8.3-18.8c5.5-11.1,10.4-21.4,14.5-31c-0.5-0.7-0.9-1.3-1.5-1.9
		c-0.5-0.6-1.1-1.2-1.7-1.9c1.1-1.3,2-2.3,2.9-2.9c0.9-0.6,1.7-0.9,2.6-0.9c1.2,0,2.4,0.8,3.6,2.4s2.5,4.3,4,8.1
		c1.3,3.3,3.2,7.8,5.5,13.7c7.9,19.9,13.4,31.3,16.5,34.3c-1.1,1.2-2.1,2-3,2.6c-0.9,0.5-1.9,0.8-2.9,0.8c-2.9,0-6.1-4.9-9.8-14.7
		C483.1,479.3,482.4,477.6,482,476.3z M471,448.8l-2.1,4.8c-3.3,7.7-5.7,13.3-7.2,16.9h18c-1.5-3.9-2.9-7.7-4.4-11.3
		C473.9,455.6,472.4,452.2,471,448.8z"/>
	<path d="M549.6,468c1.4-0.9,2.7-1.5,3.8-2c1.1-0.4,2-0.7,2.7-0.7c1.8,0,3,0.6,3.7,1.9c0.7,1.3,1.1,3.6,1.1,6.9
		c0,4.3-0.3,8.1-1,11.4c-0.7,3.3-1.6,5.5-2.6,6.7c-1.5,1.6-3.8,2.8-6.7,3.6c-3,0.8-6.7,1.2-11,1.2c-10.6,0-19.2-2.7-25.6-8
		c-6.4-5.3-9.7-12.3-9.7-21c0-4.4,0.8-8.5,2.5-12.3c1.7-3.9,4.1-7.4,7.4-10.7c3.8-3.8,8.2-6.7,13.3-8.7c5.1-2,10.5-3.1,16.3-3.1
		c2.5,0,4.3,0.3,5.5,1c1.2,0.7,1.8,1.7,1.8,3.1c0,0.7-0.1,1.4-0.4,2.3c-0.3,0.9-0.6,1.8-1.2,2.9c-1.1-0.5-2.3-0.8-3.5-1
		c-1.3-0.2-2.6-0.3-4.2-0.3c-8.3,0-15.1,2.4-20.4,7.2c-5.3,4.8-8,10.9-8,18.4c0,7.3,2.3,13,6.9,17c4.6,4,11.2,6,19.7,6
		c2.1,0,4.2-0.2,6.2-0.5s4-0.9,5.9-1.6c0.2-1.3,0.3-2.6,0.4-3.9c0.1-1.4,0.1-2.8,0.1-4.4c0-2.7-0.2-5-0.7-6.9
		C551.3,470.7,550.6,469.1,549.6,468z"/>
	<path d="M605,443.3c-1.5-0.7-3.3-1.2-5.5-1.5c-2.1-0.3-4.9-0.5-8.2-0.5c-1.4,0-3.9,0-7.6,0.1c-0.9,0-1.6,0-2.1,0l-0.3,18.9
		c0.8,0.1,1.6,0.1,2.5,0.1c0.9,0,2.3,0,4.2,0c3.8,0,6.9-0.1,9.4-0.3c2.5-0.2,4.3-0.4,5.4-0.8c0.3,0.8,0.6,1.5,0.8,2.1
		s0.3,1.2,0.3,1.6c0,1.4-0.4,2.4-1.3,2.9c-0.9,0.6-2.3,0.9-4.4,0.9c-0.7,0-2.3,0-4.8-0.1c-2.6-0.1-4.8-0.1-6.7-0.1
		c-1.4,0-2.5,0-3.3,0c-0.8,0-1.5,0-2.1,0.1c0,3.2,0,6.6-0.1,10.3s-0.2,7.6-0.3,11.9c0.3,0,0.7,0,1.3,0c3.7,0.1,6.4,0.1,8,0.1
		c3,0,5.6-0.2,7.8-0.5c2.2-0.4,4.1-0.9,5.7-1.7c0.6,1.1,1.1,2,1.3,2.8c0.3,0.8,0.4,1.6,0.4,2.2c0,1.5-0.5,2.6-1.5,3.2
		s-2.9,0.9-5.7,0.9c-1.4,0-3.4,0-6.1-0.1c-2.7-0.1-4.8-0.1-6.1-0.1c-3,0-6,0.1-9.1,0.2c-0.6,0-1,0-1.2,0c-1,0-1.7-0.2-2.1-0.7
		c-0.4-0.5-0.6-1.3-0.6-2.4c0-0.6,0.1-2.1,0.2-4.6c0.5-8.8,0.7-17.1,0.7-24.8c0-7.7-0.1-13.8-0.4-18.4c-0.3-4.6-0.7-8.1-1.3-10.4
		h5.4c6.7,0,13.5-0.2,20.5-0.6c1.5-0.1,2.4-0.1,2.7-0.1c2.3,0,3.9,0.3,4.7,0.8c0.9,0.5,1.3,1.4,1.3,2.7c0,0.7-0.1,1.6-0.4,2.5
		C606.1,441.1,605.7,442.1,605,443.3z"/>
</g>
</svg>
